<svg xmlns="http://www.w3.org/2000/svg" enable-background="new 0 0 512 512" viewBox="0 0 512 512" id="integrity">
  <path fill="#b8daff" d="M181.153 241.224c0 46.344-37.642 83.986-84.175 83.986-46.46 0-83.986-37.763-83.986-83.986H181.153zM499.009 241.224c0 46.344-37.642 83.986-84.175 83.986-46.46 0-83.986-37.763-83.986-83.986H499.009zM396.507 472.743H115.493v0c0-23.171 18.784-41.954 41.954-41.954h197.106C377.723 430.788 396.507 449.572 396.507 472.743L396.507 472.743z"></path>
  <path fill="#fff" d="M289.343,108.23c0,18.44-14.904,33.343-33.343,33.343s-33.343-14.904-33.343-33.343
			c0-18.376,14.904-33.28,33.343-33.28S289.343,89.853,289.343,108.23z"></path>
  <path fill="#3f8cf4" d="M499.008,234.233h-21.313l-56.318-123.482c1.928-4.6-1.447-9.694-6.447-9.694H295.654
			c-2.993-16.524-16.091-29.543-32.662-32.453V39.258c0-3.865-3.127-6.992-6.992-6.992s-6.992,3.127-6.992,6.992v29.345
			c-16.572,2.91-29.669,15.929-32.662,32.453H97.069c-1.742,0.45-6.771-0.638-8.869,4.622L37.182,234.233h-24.19
			c-3.865,0-6.992,3.127-6.992,6.992c0,50.164,40.817,90.974,90.98,90.974c50.266,0,91.165-40.81,91.165-90.974
			c0-3.865-3.127-6.992-6.992-6.992h-21.313L105.479,115.04h110.809c2.861,16.723,16.023,29.94,32.72,32.876v275.877h-91.561
			c-26.99,0-48.949,21.958-48.949,48.949c0,3.865,3.127,6.992,6.992,6.992h281.019c3.865,0,6.992-3.127,6.992-6.992
			c0-26.99-21.958-48.949-48.949-48.949h-91.561V147.916c16.697-2.936,29.859-16.153,32.72-32.876h106.628l-47.303,119.193h-24.19
			c-3.865,0-6.992,3.127-6.992,6.992c0,50.164,40.817,90.974,90.98,90.974c50.266,0,91.165-40.81,91.165-90.974
			C506,237.36,502.873,234.233,499.008,234.233z M96.98,318.215c-40.1,0-73.139-30.807-76.683-69.999h153.55
			C170.297,287.408,137.176,318.215,96.98,318.215z M52.333,233.967l42.81-107.879l49.201,107.879H52.333z M388.814,465.75H123.186
			c3.25-15.943,17.377-27.974,34.262-27.974h197.105C371.438,437.777,385.564,449.807,388.814,465.75z M256,134.581
			c-14.53,0-26.348-11.819-26.348-26.348c0-14.495,11.819-26.294,26.348-26.294s26.348,11.798,26.348,26.294
			C282.348,122.762,270.53,134.581,256,134.581z M412.999,126.087L462.2,233.967h-92.011L412.999,126.087z M414.835,318.215
			c-40.1,0-73.139-30.807-76.683-69.999h153.55C488.152,287.408,455.03,318.215,414.835,318.215z"></path>
</svg>
