<svg xmlns="http://www.w3.org/2000/svg" enable-background="new 0 0 512 512" viewBox="0 0 512 512" id="knowledge">
  <path fill="#fff" d="M153.469 445.703C343.41 459.379 443.37 297.39 416.352 143.057M157.688 143.057c-4.47 137.825-30.687 257.707-115.475 329.258 91.869-4.213 161.13-38.606 196.02-118.881"></path>
  <path fill="#b8daff" d="M416.352,143.057c0,71.435-57.897,129.332-129.331,129.332s-129.332-57.897-129.332-129.332
			c0-71.339,57.897-129.235,129.332-129.235S416.352,71.719,416.352,143.057z"></path>
  <circle cx="354.363" cy="137.933" r="16.564" fill="#fff"></circle>
  <circle cx="219.677" cy="137.933" r="16.564" fill="#fff"></circle>
  <path fill="#3f8cf4" d="M354.361 162.307c13.443 0 24.375-10.936 24.375-24.375s-10.933-24.375-24.375-24.375-24.375 10.936-24.375 24.375S340.919 162.307 354.361 162.307zM354.361 129.181c4.906 0 8.751 3.845 8.751 8.751 0 4.825-3.929 8.751-8.751 8.751s-8.751-3.925-8.751-8.751C345.61 133.106 349.539 129.181 354.361 129.181zM219.677 162.307c13.443 0 24.375-10.936 24.375-24.375s-10.933-24.375-24.375-24.375-24.375 10.936-24.375 24.375S206.234 162.307 219.677 162.307zM219.677 129.181c4.906 0 8.751 3.845 8.751 8.751 0 4.825-3.929 8.751-8.751 8.751-4.822 0-8.751-3.925-8.751-8.751C210.926 133.106 214.855 129.181 219.677 129.181z"></path>
  <path fill="#3f8cf4" d="M344.33,436.893l-76.636,54.934c-3.502,2.514-4.31,7.396-1.793,10.902
			c2.516,3.51,7.396,4.309,10.902,1.8c153.407-109.965,58.708-42.083,197.533-141.596c3.502-2.514,4.31-7.396,1.793-10.902
			c-2.51-3.498-7.385-4.314-10.902-1.8l-55.347,39.674c-27.508-10.439-28.512-34.055-28.234-40.438
			c39.542-57.848,55.359-132.983,42.478-207.276c-0.253-40.12-17.907-76.1-45.71-101.029c13.006-4.594,26.93-7.223,41.49-7.223
			c4.318,0,7.812-3.498,7.812-7.812s-3.494-7.812-7.812-7.812c-19.783,0-38.601,4.147-55.697,11.549
			c-22.005-15.031-48.577-23.854-77.187-23.854c-28.608,0-55.179,8.824-77.183,23.856c-17.096-7.403-35.916-11.55-55.701-11.55
			c-4.318,0-7.812,3.498-7.812,7.812s3.494,7.812,7.812,7.812c14.561,0,28.487,2.63,41.494,7.225
			c-27.938,25.051-45.654,61.258-45.737,101.614c0,0.01-0.006,0.019-0.007,0.029C144.682,303.03,108.871,405.84,37.18,466.346
			c-2.563,2.159-3.456,5.703-2.235,8.819c1.155,2.952,4.043,5.067,7.629,4.955c44.44-2.04,82.068-10.832,113.238-26.521
			c6.501,0.406,12.967,0.7,19.341,0.7c55.54,0,106.111-15.388,147.446-44.535C325.249,419.391,331.542,429.928,344.33,436.893z
			 M395.265,400.381l-36.096,25.875c-19.495-6.12-22.341-20.558-22.555-27.278c14.099-11.65,23.057-21.333,31.679-31.789
			C371.785,379.013,379.701,391.772,395.265,400.381z M287.019,21.633c22.271,0,43.095,6.12,61.064,16.613
			c-28.285,16.888-50.134,43.347-61.064,74.946c-10.93-31.599-32.778-58.058-61.062-74.946
			C243.924,27.753,264.747,21.633,287.019,21.633z M211.586,48.035c40.114,20.852,67.621,62.728,67.621,110.976
			c0,4.314,3.494,7.812,7.812,7.812s7.812-3.498,7.812-7.812c0-48.248,27.508-90.124,67.623-110.976
			c28.031,22.263,46.089,56.549,46.089,95.024c0,67.007-54.518,121.52-121.524,121.52s-121.517-54.514-121.517-121.52
			C165.502,104.584,183.557,70.299,211.586,48.035z M241.343,346.271c-3.982-1.743-8.56,0.088-10.276,4.051
			c-28.998,66.709-83.768,103.664-167.101,112.526c55.946-56.514,87.721-141.578,98.236-263.284
			c21.583,47.482,69.352,80.639,124.816,80.639c56.233,0,104.614-34.042,125.757-82.575
			c-2.038,130.306-91.534,238.621-231.983,240.92c28.063-20.024,49.508-47.269,64.601-82.001
			C247.119,352.592,245.303,347.992,241.343,346.271z"></path>
</svg>
