<svg xmlns="http://www.w3.org/2000/svg" enable-background="new 0 0 512 512" viewBox="0 0 512 512" id="quality">
  <polyline fill="#fff" points="165.738 301.919 107.834 466.909 170.234 425.764 196.869 498.177 254.5 334.004"></polyline>
  <polyline fill="#fff" points="351.232 300.761 404.163 469.566 343.194 426.377 314.106 497.836 263.764 337.206"></polyline>
  <polygon fill="#fff" points="424.287 179.578 404.632 205.806 414.176 237.158 386.709 255.04 384.911 287.762 352.991 295.187 340.157 325.342 307.624 321.422 285.22 345.337 255.999 330.481 226.771 345.335 204.367 321.419 171.83 325.336 158.997 295.178 127.077 287.751 125.282 255.03 97.818 237.15 107.364 205.8 87.71 179.578 107.365 153.35 97.821 121.998 125.288 104.116 127.087 71.394 159.006 63.969 171.841 33.814 204.374 37.734 226.778 13.819 255.999 28.675 285.226 13.821 307.631 37.737 340.168 33.82 353.001 63.978 384.92 71.405 386.715 104.126 414.179 122.006 404.633 153.356"></polygon>
  <polygon fill="#b8daff" points="424.287 179.578 404.632 205.806 414.176 237.158 386.709 255.04 384.911 287.762 352.991 295.187 340.157 325.342 307.624 321.422 285.22 345.337 255.999 330.481 226.771 345.335 204.367 321.419 171.83 325.336 158.997 295.178 127.077 287.751 125.282 255.03 97.818 237.15 107.364 205.8 87.71 179.578 107.365 153.35 97.821 121.998 125.288 104.116 127.087 71.394 159.006 63.969 171.841 33.814 204.374 37.734 226.778 13.819 255.999 28.675 285.226 13.821 307.631 37.737 340.168 33.82 353.001 63.978 384.92 71.405 386.715 104.126 414.179 122.006 404.633 153.356"></polygon>
  <path fill="#fff" d="M332.241,179.613c0,42.131-34.111,76.242-76.242,76.242s-76.242-34.111-76.242-76.242
			s34.111-76.349,76.242-76.349S332.241,137.482,332.241,179.613z"></path>
  <path fill="#3f8cf4" d="M98.732,207.316l-8.388,27.56c-1.015,3.326,0.294,6.923,3.212,8.819l24.142,15.72l1.579,28.762
			c0.183,3.467,2.647,6.393,6.027,7.183l28.052,6.527l2.256,5.299l-55.148,157.136c-2.462,6.99,5.374,13.223,11.673,9.109
			l54.167-35.72l23.238,63.161c2.531,6.892,12.286,6.78,14.701-0.111l54.204-154.41l48.209,153.819
			c2.176,6.957,11.935,7.391,14.686,0.61l25.374-62.334l52.931,37.493c6.06,4.296,14.218-1.568,11.97-8.712l-51.919-165.58
			l26.98-6.277c3.38-0.79,5.836-3.712,6.027-7.179l1.587-28.766l24.146-15.724c2.914-1.896,4.219-5.493,3.212-8.819l-8.392-27.564
			l17.28-23.059c2.083-2.777,2.083-6.592,0-9.369l-17.272-23.051l8.392-27.56c1.007-3.326-0.298-6.923-3.212-8.819l-24.146-15.72
			l-1.579-28.766c-0.183-3.467-2.647-6.393-6.027-7.183l-28.052-6.527l-11.283-26.507c-1.358-3.193-4.6-5.119-8.117-4.696
			l-28.609,3.445L290.925,8.482c-2.373-2.544-6.164-3.185-9.239-1.625l-25.687,13.057l-25.68-13.061
			c-3.075-1.556-6.859-0.912-9.239,1.625l-19.706,21.03l-28.594-3.448c-3.57-0.427-6.767,1.503-8.125,4.696l-11.283,26.504
			l-28.052,6.523c-3.38,0.786-5.836,3.712-6.027,7.179l-1.587,28.769l-24.142,15.724c-2.918,1.896-4.227,5.493-3.212,8.819
			l8.388,27.564l-17.28,23.055c-2.079,2.777-2.079,6.592,0,9.369L98.732,207.316z M196.697,475.083l-19.134-52.015
			c-1.747-4.748-7.445-6.577-11.634-3.826l-43.051,28.388l41.816-119.15c1.382,3.137,4.604,5.056,8.064,4.61l28.609-3.441
			l19.706,21.026c2.373,2.537,6.149,3.181,9.239,1.625l11.553-5.873L196.697,475.083z M347.708,420.004
			c-4.132-2.933-9.879-1.197-11.749,3.429l-20.896,51.329L275.735,349.28l5.943,3.023c3.118,1.58,6.882,0.899,9.239-1.625
			l19.706-21.03l28.594,3.448c3.578,0.435,6.767-1.507,8.125-4.696l2.517-5.913l39.924,127.315L347.708,420.004z M113.616,158.036
			c1.495-1.991,1.953-4.577,1.228-6.958l-7.835-25.737l22.544-14.678c2.083-1.358,3.403-3.631,3.532-6.115l1.48-26.874l26.214-6.096
			c2.426-0.565,4.44-2.258,5.417-4.551l10.536-24.756l26.702,3.219c2.441,0.282,4.944-0.599,6.637-2.415l18.394-19.634
			l23.994,12.199c2.228,1.129,4.852,1.129,7.08,0l23.994-12.199l18.401,19.634c1.701,1.816,4.234,2.689,6.63,2.415l26.717-3.216
			l10.536,24.76c0.977,2.293,2.991,3.986,5.417,4.551l26.214,6.096l1.472,26.87c0.13,2.487,1.45,4.761,3.532,6.119l22.544,14.678
			l-7.835,25.733c-0.725,2.38-0.267,4.967,1.228,6.958l16.136,21.537l-16.143,21.545c-1.495,1.991-1.953,4.577-1.228,6.958
			l7.835,25.737l-22.544,14.678c-2.083,1.358-3.403,3.631-3.532,6.115l-1.48,26.87l-26.214,6.099
			c-2.426,0.565-4.44,2.258-5.417,4.551l-10.536,24.756l-26.702-3.219c-2.449-0.305-4.944,0.595-6.637,2.415l-18.394,19.634
			l-23.994-12.199c-2.228-1.129-4.852-1.129-7.08,0l-23.994,12.199l-18.401-19.634c-1.709-1.82-4.196-2.727-6.63-2.415
			l-26.717,3.212l-10.536-24.76c-0.977-2.293-2.991-3.986-5.417-4.551l-26.214-6.096l-1.472-26.87
			c-0.13-2.487-1.45-4.761-3.532-6.119l-22.544-14.675l7.835-25.733c0.725-2.38,0.267-4.967-1.221-6.958l-16.143-21.541
			L113.616,158.036z"></path>
  <path fill="#3f8cf4" d="M255.999,263.668c46.347,0,84.058-37.707,84.058-84.054c0-46.408-37.711-84.164-84.058-84.164
			s-84.058,37.757-84.058,84.164C171.941,225.961,209.652,263.668,255.999,263.668z M255.999,111.075
			c37.734,0,68.433,30.745,68.433,68.54c0,37.734-30.7,68.429-68.433,68.429s-68.433-30.696-68.433-68.429
			C187.565,141.82,218.265,111.075,255.999,111.075z"></path>
</svg>
