<svg xmlns="http://www.w3.org/2000/svg" enable-background="new 0 0 512 512" viewBox="0 0 512 512" id="comunication">
  <path fill="#b8daff" d="M169.961,339.586v4.693c0,12.723-10.314,23.037-23.037,23.037H36.858
			c-12.723,0-23.037-10.314-23.037-23.037v-4.693c0-43.117,34.953-78.07,78.07-78.07h0
			C135.008,261.516,169.961,296.469,169.961,339.586z"></path>
  <circle cx="91.891" cy="182.885" r="38.207" fill="#fff" transform="rotate(-76.714 91.903 182.896)"></circle>
  <path fill="#b8daff" d="M498.179,339.637v4.696c0,12.731-10.321,23.052-23.052,23.052H364.988
			c-12.731,0-23.052-10.321-23.052-23.052v-4.696c0-43.145,34.976-78.121,78.121-78.121h0
			C463.203,261.516,498.179,296.492,498.179,339.637z"></path>
  <circle cx="420.057" cy="182.839" r="38.231" fill="#fff" transform="rotate(-76.714 420.093 182.84)"></circle>
  <path fill="#3f8cf4" d="M91.89 253.707c-47.354 0-85.881 38.527-85.881 85.881v4.692c0 17.005 13.839 30.845 30.848 30.845h110.069c17.005 0 30.845-13.839 30.845-30.845v-4.692C177.771 292.234 139.244 253.707 91.89 253.707zM162.147 344.28c0 8.392-6.828 15.22-15.22 15.22H36.857c-8.396 0-15.224-6.828-15.224-15.22v-4.692c0-38.741 31.516-70.257 70.257-70.257s70.257 31.516 70.257 70.257V344.28zM45.871 182.886c0 25.374 20.644 46.019 46.019 46.019 25.374 0 46.019-20.644 46.019-46.019s-20.644-46.019-46.019-46.019C66.516 136.868 45.871 157.512 45.871 182.886zM122.284 182.886c0 16.761-13.633 30.394-30.394 30.394s-30.394-13.633-30.394-30.394 13.633-30.394 30.394-30.394S122.284 166.125 122.284 182.886zM420.057 253.707c-47.384 0-85.934 38.55-85.934 85.927v4.7c0 17.021 13.847 30.867 30.867 30.867h110.134c17.021 0 30.867-13.847 30.867-30.867v-4.7C505.991 292.257 467.441 253.707 420.057 253.707zM490.366 344.334c0 8.407-6.836 15.243-15.243 15.243H364.99c-8.407 0-15.243-6.836-15.243-15.243v-4.7c0-38.764 31.539-70.302 70.31-70.302s70.31 31.539 70.31 70.302V344.334zM374.015 182.841c0 25.39 20.652 46.042 46.042 46.042 25.39 0 46.042-20.652 46.042-46.042s-20.652-46.042-46.042-46.042C394.667 136.799 374.015 157.451 374.015 182.841zM450.474 182.841c0 16.769-13.648 30.417-30.417 30.417-16.769 0-30.417-13.648-30.417-30.417s13.648-30.417 30.417-30.417C436.825 152.423 450.474 166.072 450.474 182.841zM259.441 230.53c-3.052 3.052-3.052 7.995 0 11.047 3.052 3.052 7.995 3.052 11.047 0l33.617-33.624c1.673-1.432 2.789-3.487 2.789-5.864 0-2.235-.96-4.22-2.462-5.644l-33.852-33.852c-3.052-3.052-7.995-3.052-11.047 0-3.052 3.052-3.052 7.995 0 11.047l20.637 20.637h-87.681c-4.318 0-7.812 3.494-7.812 7.812 0 4.318 3.494 7.812 7.812 7.812h87.577L259.441 230.53zM306.947 310.216h-87.588l20.635-20.629c3.052-3.052 3.052-7.995 0-11.047-3.052-3.052-7.995-3.052-11.047 0L195.3 312.18c-1.661 1.432-2.767 3.481-2.767 5.849 0 2.245.971 4.235 2.486 5.659l33.829 33.837c3.052 3.052 7.995 3.052 11.047 0 3.052-3.052 3.052-7.995 0-11.047l-20.631-20.637h87.683c4.318 0 7.812-3.494 7.812-7.812S311.265 310.216 306.947 310.216z"></path>
</svg>
