<svg xmlns="http://www.w3.org/2000/svg" enable-background="new 0 0 512 512" viewBox="0 0 512 512" id="optimism">
  <path fill="#b8daff" d="M238.959,449.713v6.767c0,18.345-14.872,33.217-33.217,33.217H47.038
			c-18.345,0-33.217-14.872-33.217-33.217v-6.767c0-62.17,50.399-112.569,112.569-112.569h0
			C188.56,337.144,238.959,387.543,238.959,449.713z"></path>
  <ellipse cx="126.39" cy="236.964" fill="#fff" rx="68.278" ry="68.277" transform="rotate(-76.714 126.406 236.977)"></ellipse>
  <path fill="#fff" d="M264.26,261.536l52.359-29.314c18.734,13.138,41.554,20.847,66.175,20.847
			c63.731,0,115.384-51.654,115.384-115.384c0-63.731-51.654-115.384-115.384-115.384c-63.73,0-115.384,51.654-115.384,115.384
			c0,26.036,8.621,50.056,23.164,69.362L264.26,261.536z"></path>
  <circle cx="381.045" cy="142.102" r="73.375" fill="#b8daff" transform="rotate(-45.001 381.045 142.107)"></circle>
  <path fill="#fff" d="M421.241,144.812c0,22.206-17.99,40.196-40.196,40.196c-22.206,0-40.196-17.99-40.196-40.196
			H421.241z"></path>
  <path fill="#3f8cf4" d="M47.038 497.509h158.701c22.62 0 41.029-18.405 41.029-41.029v-6.767c0-66.377-53.999-120.38-120.38-120.38S6.009 383.336 6.009 449.713v6.767C6.009 479.104 24.418 497.509 47.038 497.509zM21.634 449.713c0-57.764 46.995-104.755 104.755-104.755s104.755 46.992 104.755 104.755v6.767c0 14.007-11.398 25.405-25.405 25.405H47.038c-14.007 0-25.405-11.398-25.405-25.405V449.713zM50.304 236.963c0 41.956 34.133 76.089 76.085 76.089 41.96 0 76.093-34.133 76.093-76.089s-34.133-76.089-76.093-76.089C84.436 160.874 50.304 195.007 50.304 236.963zM186.857 236.963c0 33.339-27.129 60.465-60.468 60.465s-60.461-27.125-60.461-60.465 27.122-60.465 60.461-60.465S186.857 203.624 186.857 236.963zM382.796 14.491c-67.93 0-123.195 55.265-123.195 123.195 0 25.355 7.56 49.509 21.911 70.161l-24.283 50.291c-1.48 3.071-.801 6.752 1.678 9.086 2.492 2.345 6.208 2.79 9.17 1.129l48.17-26.969c19.851 12.771 42.746 19.496 66.549 19.496 67.93 0 123.195-55.265 123.195-123.195S450.726 14.491 382.796 14.491zM382.796 245.256c-22.239 0-43.57-6.717-61.689-19.431-1.343-.938-2.914-1.415-4.486-1.415-1.312 0-2.624.328-3.815.996l-30.73 17.204 15.533-32.164c1.274-2.636.969-5.76-.793-8.098-14.121-18.752-21.59-41.113-21.59-64.661 0-59.316 48.254-107.571 107.571-107.571s107.571 48.254 107.571 107.571S442.112 245.256 382.796 245.256z"></path>
  <path fill="#3f8cf4" d="M381.041,60.914c-44.76,0-81.181,36.421-81.181,81.189c0,44.764,36.421,81.185,81.181,81.185
			c44.768,0,81.189-36.421,81.189-81.185C462.23,97.335,425.809,60.914,381.041,60.914z M381.041,207.664
			c-36.147,0-65.557-29.41-65.557-65.561s29.41-65.565,65.557-65.565c36.154,0,65.565,29.414,65.565,65.565
			S417.196,207.664,381.041,207.664z"></path>
  <path fill="#3f8cf4" d="M421.239 136.999h-80.388c-4.318 0-7.812 3.498-7.812 7.812 0 26.473 21.537 48.01 48.01 48.01 26.465 0 48.002-21.537 48.002-48.01C429.051 140.497 425.557 136.999 421.239 136.999zM381.049 177.197c-15.167 0-27.93-10.479-31.432-24.573h62.856C408.971 166.718 396.208 177.197 381.049 177.197zM355.301 125.075c4.318 0 7.812-3.498 7.812-7.812v-9.033c0-4.314-3.494-7.812-7.812-7.812s-7.812 3.498-7.812 7.812v9.033C347.488 121.577 350.983 125.075 355.301 125.075zM406.789 125.075c4.318 0 7.812-3.498 7.812-7.812v-9.033c0-4.314-3.494-7.812-7.812-7.812s-7.812 3.498-7.812 7.812v9.033C398.977 121.577 402.471 125.075 406.789 125.075z"></path>
</svg>
