<svg xmlns="http://www.w3.org/2000/svg" enable-background="new 0 0 512 512" viewBox="0 0 512 512" id="community">
  <path fill="#b8daff" d="M226.372,201.187v5.052H121.01v-5.052c0-29.095,23.586-52.681,52.681-52.681h0
			C202.786,148.505,226.372,172.092,226.372,201.187z"></path>
  <circle cx="173.691" cy="100.876" r="25.258" fill="#fff" transform="rotate(-22.5 173.683 100.872)"></circle>
  <path fill="#b8daff" d="M390.99,197.402v5.052H285.628v-5.052c0-29.095,23.586-52.681,52.681-52.681h0
			C367.404,144.721,390.99,168.307,390.99,197.402z"></path>
  <circle cx="338.309" cy="97.092" r="25.258" fill="#fff" transform="rotate(-22.5 338.294 97.089)"></circle>
  <circle cx="256" cy="285.046" r="37.187" fill="#fff" transform="rotate(-22.5 255.988 285.034)"></circle>
  <path fill="#b8daff" d="M168.944,432.731v7.437H13.821v-7.437c0-42.836,34.725-77.561,77.561-77.561h0
			C134.219,355.17,168.944,389.895,168.944,432.731z"></path>
  <circle cx="91.383" cy="285.046" r="37.187" fill="#fff" transform="rotate(-22.5 91.378 285.034)"></circle>
  <path fill="#fff" d="M333.561,432.731v7.437H178.439v-7.437c0-42.836,34.725-77.561,77.561-77.561h0
			C298.836,355.17,333.561,389.895,333.561,432.731z"></path>
  <path fill="#b8daff" d="M498.179,432.731v7.437H343.056v-7.437c0-42.836,34.725-77.561,77.561-77.561h0
			C463.453,355.17,498.179,389.895,498.179,432.731z"></path>
  <circle cx="420.617" cy="285.046" r="37.187" fill="#fff" transform="rotate(-22.5 420.598 285.035)"></circle>
  <path fill="#3f8cf4" d="M113.198 201.185v5.054c0 4.314 3.494 7.812 7.812 7.812h105.366c4.318 0 7.812-3.498 7.812-7.812v-5.054c0-33.355-27.137-60.491-60.499-60.491C140.335 140.694 113.198 167.83 113.198 201.185zM173.689 156.318c23.818 0 43.364 18.649 44.791 42.109h-89.573C130.333 174.967 149.879 156.318 173.689 156.318zM206.762 100.877c0-18.237-14.839-33.072-33.072-33.072s-33.065 14.835-33.065 33.072c0 18.234 14.831 33.068 33.065 33.068S206.762 119.111 206.762 100.877zM156.249 100.877c0-9.62 7.82-17.448 17.44-17.448s17.448 7.827 17.448 17.448-7.827 17.444-17.448 17.444S156.249 110.497 156.249 100.877zM398.802 202.455v-5.054c0-33.355-27.137-60.491-60.491-60.491-33.362 0-60.499 27.137-60.499 60.491v5.054c0 4.314 3.494 7.812 7.812 7.812H390.99C395.308 210.267 398.802 206.769 398.802 202.455zM293.52 194.643c1.427-23.46 20.972-42.109 44.791-42.109 23.81 0 43.356 18.649 44.783 42.109H293.52zM371.375 97.093c0-18.237-14.831-33.072-33.065-33.072s-33.072 14.835-33.072 33.072c0 18.234 14.839 33.068 33.072 33.068S371.375 115.327 371.375 97.093zM320.863 97.093c0-9.62 7.827-17.448 17.448-17.448 9.62 0 17.44 7.827 17.44 17.448s-7.82 17.444-17.44 17.444C328.69 114.537 320.863 106.713 320.863 97.093zM256 330.044c24.81 0 44.997-20.187 44.997-45 0-24.81-20.187-44.997-44.997-44.997s-44.997 20.187-44.997 44.997C211.003 309.858 231.19 330.044 256 330.044zM256 255.672c16.197 0 29.372 13.175 29.372 29.372 0 16.197-13.175 29.376-29.372 29.376s-29.372-13.179-29.372-29.376C226.628 268.847 239.803 255.672 256 255.672zM91.383 330.044c24.814 0 45-20.187 45-45 0-24.81-20.187-44.997-45-44.997s-45 20.187-45 44.997C46.382 309.858 66.569 330.044 91.383 330.044zM91.383 255.672c16.2 0 29.376 13.175 29.376 29.372 0 16.197-13.175 29.376-29.376 29.376-16.197 0-29.376-13.179-29.376-29.376C62.007 268.847 75.186 255.672 91.383 255.672zM420.621 347.359c-39.343 0-72.463 26.783-82.314 63.046-9.852-36.263-42.97-63.046-82.307-63.046s-72.455 26.783-82.307 63.046c-9.852-36.263-42.971-63.046-82.311-63.046-47.075 0-85.374 38.298-85.374 85.374v7.435c0 4.314 3.498 7.812 7.812 7.812 161.145 0 322.568 0 484.357 0 4.318 0 7.812-3.498 7.812-7.812v-7.435C505.991 385.657 467.693 347.359 420.621 347.359zM21.634 432.355c.206-38.287 31.417-69.372 69.749-69.372s69.543 31.085 69.749 69.372H21.634zM186.255 432.355c.206-38.287 31.417-69.372 69.745-69.372s69.539 31.085 69.745 69.372H186.255zM350.868 432.355c.206-38.287 31.417-69.372 69.753-69.372 38.329 0 69.539 31.085 69.745 69.372H350.868zM375.617 285.044c0 24.814 20.187 45 45.004 45 24.81 0 44.997-20.187 44.997-45 0-24.81-20.187-44.997-44.997-44.997C395.804 240.048 375.617 260.234 375.617 285.044zM449.993 285.044c0 16.197-13.175 29.376-29.372 29.376s-29.38-13.179-29.38-29.376c0-16.197 13.183-29.372 29.38-29.372S449.993 268.847 449.993 285.044z"></path>
</svg>
